<svg data-name="Layer 1" id="Layer_1" viewBox="0 0 500 500" xmlns="http://www.w3.org/2000/svg">
  <defs>
    <style>
      .cls-1{fill:#282828}
    </style>
  </defs>
  <path class="cls-1" d="M250 193a57 57 0 1 0 57 57 57 57 0 0 0-57-57z"/>
  <path class="cls-1" d="M317 105H183a78 78 0 0 0-78 78v134a78 78 0 0 0 78 78h134a78 78 0 0 0 78-78V183a78 78 0 0 0-78-78zm-67 232a87 87 0 1 1 87-87 87 87 0 0 1-87 87zm95-161a21 21 0 1 1 22-21 21 21 0 0 1-22 21z"/>
  <path class="cls-1" d="M485 125a144 144 0 0 0-2-26c-2-10-5-20-10-29a102 102 0 0 0-20-26 97 97 0 0 0-42-24c-15-4-30-5-46-5H135l-26 1a123 123 0 0 0-28 6 97 97 0 0 0-37 24 97 97 0 0 0-24 43c-4 15-5 30-5 45v232a162 162 0 0 0 11 63 101 101 0 0 0 29 34 92 92 0 0 0 28 15c15 5 31 7 47 7h244a169 169 0 0 0 29-3 96 96 0 0 0 47-23c16-14 26-31 31-52 3-14 4-27 4-41V125zm-61 192a108 108 0 0 1-107 107H183A108 108 0 0 1 76 317V183A108 108 0 0 1 183 76h134a108 108 0 0 1 107 107z"/>
</svg>
